# xmcd
#
# Track frame offsets:
#	150
#	19897
#	38125
#	51967
#	69675
#	90432
#	115245
#	131302
#	148567
#	165205
#	192040
#	220427
#	245360
# Disc length: 3534 seconds
# Revision: 2
# Processed by: cddbd v1.5.1PL2 Copyright (c) Steve Scherf et al.
#
# Submitted via: libkcddb 0.31
#
DISCID=ae0dcc0d
DTITLE=Axel Zwingenberger and Vince Weber - The Boogiemeisters
DYEAR=1999
DGENRE=Blues
TTITLE0=Boogie Woogie Country Girl
TTITLE1=Welcome To Boogie City
TTITLE2=The Boogiemeisters
TTITLE3=I've Got To Move
TTITLE4=The Dirty Dozens
TTITLE5=Fantasy In Blues
TTITLE6=Boogie For Real
TTITLE7=Foot Pedal Boogie
TTITLE8=Sixth Avenue Express
TTITLE9=Midnight Hour Blues
TTITLE10=Roll 'em Pete
TTITLE11=The Higher We Jump
TTITLE12=Low Down Dog
EXTD=Axel Zwingenberger - piano, Vince Weber - piano, vocal
EXTT0=
EXTT1=
EXTT2=
EXTT3=
EXTT4=
EXTT5=
EXTT6=
EXTT7=
EXTT8=
EXTT9=
EXTT10=
EXTT11=
EXTT12=
PLAYORDER=
